<?xml version="1.0" ?>
<!DOCTYPE svg  PUBLIC '-//W3C//DTD SVG 1.1//EN'  'http://www.w3.org/Graphics/SVG/1.1/DTD/svg11.dtd'>
<!-- Uploaded to: SVG Repo, www.svgrepo.com, Generator: SVG Repo Mixer Tools -->
<svg fill="#000000" width="800px" height="800px" viewBox="0 0 100 100" version="1.1" xml:space="preserve" xmlns="http://www.w3.org/2000/svg" xmlns:xlink="http://www.w3.org/1999/xlink">
<g id="Grid"/>
<g id="_x31_"/>
<g id="_x32_"/>
<g id="_x33_"/>
<g id="_x34_"/>
<g id="_x35_"/>
<g id="_x36_"/>
<g id="_x37_"/>
<g id="_x38_"/>
<g id="_x39_"/>
<g id="_x31_0"/>
<g id="_x31_1"/>
<g id="_x31_2"/>
<g id="_x31_3"/>
<g id="_x31_4"/>
<g id="_x31_5"/>
<g id="_x31_6"/>
<g id="_x31_7">
<path d="M25.6,84.5c-2.6,0-5.1-0.7-7.4-1.9c-2.8-1.5-5.1-4-6.5-6.9c-1-2-1.5-4.2-1.5-6.5c0-1.7,0.3-3.3,0.8-4.9   c1.1-3.3,3.4-6.2,6.4-8.1c2.4-1.5,5.2-2.3,8.1-2.3c2.9,0,5.6,0.8,8.1,2.3c3,1.9,5.3,4.7,6.4,8.1c0.5,1.6,0.8,3.2,0.8,4.9   c0,2.3-0.5,4.5-1.5,6.6c-1.4,2.9-3.7,5.3-6.5,6.9C30.7,83.8,28.2,84.5,25.6,84.5z M25.6,56.9c-2.3,0-4.6,0.6-6.5,1.9   c-2.4,1.5-4.2,3.8-5.1,6.5c-0.4,1.3-0.6,2.6-0.6,3.9c0,1.8,0.4,3.6,1.2,5.2c1.1,2.3,2.9,4.3,5.2,5.5c3.6,2,8.2,2,11.8,0   c2.3-1.2,4.1-3.2,5.2-5.5c0.8-1.7,1.2-3.4,1.2-5.3c0-1.4-0.2-2.7-0.6-3.9c-0.9-2.7-2.7-5-5.2-6.5C30.2,57.6,27.9,56.9,25.6,56.9z    M27.6,44.3c-0.4,0-0.7-0.1-1-0.4c-0.3-0.3-0.5-0.7-0.5-1.1c0-1.3-0.2-2.6-0.6-3.8c-0.9-2.7-2.8-5-5.2-6.5   c-1.9-1.2-4.2-1.8-6.5-1.8c-0.5,0-1.1,0-1.7,0.1c-0.4,0.1-0.9-0.1-1.2-0.4c-0.3-0.3-0.5-0.7-0.5-1.1v-0.1c0-1.7,0.3-3.3,0.8-4.9   c1.1-3.3,3.4-6.2,6.4-8.1c2.4-1.5,5.2-2.3,8.1-2.3c0.3,0,0.6,0,0.9,0c0.4,0,0.8,0.2,1,0.5c0.3,0.3,0.4,0.7,0.3,1.1   c0,0.1,0,0.1,0,0.2c0,1.8,0.4,3.6,1.2,5.2c1.1,2.3,2.9,4.3,5.2,5.5c1.6,0.9,3.4,1.4,5.3,1.5c0.8,0,1.4,0.7,1.4,1.5   c0,2.2-0.5,4.3-1.5,6.2c-1.4,2.9-3.7,5.3-6.5,6.9c-1.6,0.9-3.4,1.4-5.2,1.7C27.7,44.3,27.6,44.3,27.6,44.3z M13.8,27.7   c2.9,0,5.6,0.8,8.1,2.3c3,1.9,5.3,4.7,6.4,8.1c0.3,1,0.5,1.9,0.7,2.9c0.9-0.2,1.7-0.6,2.6-1c2.3-1.2,4.1-3.2,5.2-5.5   c0.6-1.1,0.9-2.4,1.1-3.6c-1.8-0.3-3.5-0.9-5-1.7c-2.8-1.5-5.1-4-6.5-6.9c-0.8-1.7-1.3-3.5-1.4-5.4c-2,0.1-4,0.8-5.8,1.8   c-2.4,1.5-4.2,3.8-5.1,6.5c-0.3,0.8-0.5,1.6-0.6,2.4C13.6,27.7,13.7,27.7,13.8,27.7z M39.4,31C39.4,31,39.4,31,39.4,31   c-2.4-0.1-4.7-0.8-6.6-1.9c-2.8-1.5-5.1-4-6.5-6.9c-1-2-1.5-4.2-1.5-6.5c0-0.2,0-0.3,0-0.5c0.1-0.8,0.8-1.4,1.6-1.4   c2.5,0.1,5.1,0.9,7.3,2.3c3,1.9,5.3,4.8,6.4,8.1c0.5,1.6,0.8,3.3,0.8,4.9c0,0.2,0,0.3,0,0.5C40.8,30.4,40.2,31,39.4,31z M27.9,17.1   c0.1,1.3,0.5,2.7,1.1,3.9c1.1,2.3,2.9,4.3,5.2,5.5c1.1,0.6,2.3,1.1,3.6,1.3c-0.1-0.9-0.3-1.7-0.6-2.6c-0.9-2.7-2.8-5-5.2-6.5   C30.8,17.9,29.4,17.4,27.9,17.1z M25.6,44.5c-2.6,0-5.1-0.7-7.4-1.9c-2.8-1.6-5.1-4-6.5-6.9c-0.9-2-1.4-4.2-1.5-6.4   c0-0.8,0.6-1.4,1.3-1.5c0.8-0.1,1.4-0.1,2.1-0.1c2.9,0,5.6,0.8,8.1,2.3c3,1.9,5.3,4.7,6.4,8.1c0.5,1.5,0.8,3.1,0.8,4.7   c0,0.8-0.5,1.4-1.3,1.5C27,44.4,26.3,44.5,25.6,44.5z M13.5,30.7c0.2,1.3,0.5,2.6,1.1,3.7c1.1,2.3,2.9,4.3,5.2,5.5   c1.9,1,4.1,1.6,6.3,1.5c-0.1-0.8-0.3-1.6-0.5-2.4c-0.9-2.7-2.8-5-5.2-6.5C18.2,31.3,15.9,30.6,13.5,30.7z M91.5,50.9   c0-2.6-0.4-5.1-1.2-7.5c-0.5-1.5-1.2-2.9-2-4.3c-0.1-0.1-0.1-0.2-0.2-0.3c-0.1-0.1-0.2-0.3-0.3-0.4c-0.2-0.3-0.4-0.6-0.6-1   c-0.2-0.3-0.4-0.6-0.6-0.8c-0.2-0.3-0.5-0.6-0.7-0.8c-0.2-0.3-0.5-0.5-0.7-0.8c-0.3-0.3-0.5-0.5-0.8-0.8c-0.2-0.2-0.5-0.5-0.7-0.7   c-0.3-0.3-0.7-0.6-1.1-0.9c-0.2-0.1-0.3-0.3-0.5-0.4c0,0,0,0-0.1,0c-0.6-0.4-1.2-0.8-1.8-1.2c-3.7-2.3-8-3.5-12.4-3.5   c-4.4,0-8.7,1.2-12.5,3.6c-0.6,0.4-1.2,0.8-1.8,1.2c0,0,0,0-0.1,0c-0.2,0.1-0.3,0.3-0.5,0.4c-0.4,0.3-0.7,0.6-1.1,0.9   c-0.2,0.2-0.5,0.5-0.7,0.7c-0.3,0.3-0.5,0.5-0.8,0.8c-0.2,0.3-0.5,0.5-0.7,0.8c-0.2,0.3-0.4,0.5-0.7,0.8c-0.2,0.3-0.4,0.6-0.6,0.9   c-0.2,0.3-0.4,0.6-0.6,0.9c-0.1,0.1-0.2,0.3-0.3,0.4c-0.1,0.1-0.1,0.2-0.2,0.3c-0.8,1.3-1.5,2.8-2,4.3c-0.8,2.4-1.2,5-1.2,7.5   c0,3.5,0.8,6.9,2.3,10.1c0.4,0.8,0.8,1.6,1.3,2.3c0,0.1,0.1,0.1,0.1,0.2c0.1,0.1,0.2,0.3,0.3,0.4c0.1,0.2,0.3,0.4,0.4,0.6   c0.2,0.3,0.5,0.6,0.7,0.9c0.1,0.2,0.3,0.3,0.4,0.5c0.3,0.3,0.5,0.6,0.8,0.9c0.1,0.1,0.3,0.3,0.4,0.4c0.3,0.3,0.6,0.6,0.9,0.9   c0.2,0.1,0.3,0.3,0.5,0.4c0.2,0.2,0.4,0.4,0.6,0.6c0.1,0,0.1,0.1,0.2,0.1c1.1,0.9,2.2,1.6,3.4,2.3c3.5,1.9,7.4,2.9,11.3,2.9   c3.9,0,7.8-1,11.3-2.9c1.2-0.7,2.3-1.4,3.4-2.3c0.1,0,0.1-0.1,0.2-0.1c0.2-0.2,0.4-0.4,0.6-0.6c0.2-0.1,0.3-0.3,0.5-0.4   c0.3-0.3,0.6-0.6,0.9-0.9c0.1-0.1,0.3-0.3,0.4-0.4c0.3-0.3,0.6-0.6,0.8-0.9c0.1-0.2,0.3-0.3,0.4-0.5c0.2-0.3,0.5-0.6,0.7-0.9   c0.2-0.2,0.3-0.4,0.5-0.7c0.1-0.1,0.2-0.3,0.3-0.4c0-0.1,0.1-0.1,0.1-0.2c0.5-0.8,0.9-1.5,1.3-2.3C90.7,57.9,91.5,54.5,91.5,50.9z    M87.2,58.1c-0.2-0.2-0.3-0.3-0.5-0.5c-1.5-1.1-3.6-1.1-5.1,0l-0.9,0.7l-4.6-5.2l0.5-1.6c0.6-1.8,0-3.6-1.5-4.8l2.7-3.2   c0.8,1.1,2.1,1.7,3.4,1.7h3.1c1.1,0,2.1-0.4,2.9-1.1c0,0,0,0.1,0.1,0.1c0.7,2.1,1.1,4.3,1.1,6.6C88.5,53.4,88,55.8,87.2,58.1z    M85,62.3c-0.1,0.2-0.3,0.4-0.4,0.6c-0.2,0.3-0.4,0.5-0.6,0.8c-0.1,0.1-0.2,0.3-0.4,0.4c-0.2,0.3-0.5,0.6-0.7,0.8   c-0.1,0.1-0.2,0.2-0.4,0.4c-0.3,0.3-0.5,0.5-0.8,0.8c-0.1,0.1-0.3,0.3-0.4,0.4c-0.2,0.2-0.4,0.4-0.7,0.5c-0.3,0.2-0.7,0.3-1.1,0.2   c-0.4-0.1-0.7-0.4-0.9-0.9l-0.5-1.4c-0.2-0.5,0-1.1,0.5-1.5l2.6-1.9c0,0,0,0,0,0c0,0,0,0,0,0l1.9-1.4c0.2-0.2,0.5-0.2,0.8-0.2   c0.3,0,0.6,0.1,0.9,0.3c0.5,0.4,0.7,1.1,0.4,1.7C85.2,62,85.1,62.1,85,62.3z M57.5,64.9C57.5,64.9,57.5,64.9,57.5,64.9L57,66.2   c-0.1,0.4-0.5,0.7-0.9,0.9c-0.4,0.1-0.8,0-1.1-0.2c-0.2-0.2-0.4-0.4-0.6-0.5c-0.1-0.1-0.3-0.2-0.4-0.4c-0.3-0.3-0.5-0.5-0.8-0.8   c-0.1-0.1-0.2-0.2-0.4-0.4c-0.3-0.3-0.5-0.6-0.7-0.8c-0.1-0.1-0.2-0.3-0.3-0.4c-0.2-0.3-0.4-0.5-0.6-0.8c-0.1-0.2-0.3-0.4-0.4-0.5   c-0.1-0.1-0.2-0.3-0.3-0.4c-0.3-0.6-0.2-1.3,0.4-1.7c0.2-0.2,0.5-0.3,0.8-0.3c0.3,0,0.5,0.1,0.8,0.3l4.6,3.3   C57.4,63.8,57.6,64.3,57.5,64.9z M54.2,57.7c-1.5-1.1-3.6-1.1-5.1,0c-0.2,0.1-0.3,0.3-0.5,0.4c-0.8-2.3-1.3-4.7-1.3-7.1   c0-2.3,0.4-4.5,1.1-6.6c0,0,0-0.1,0.1-0.1c0.8,0.7,1.8,1.1,2.9,1.1h3.1c1.4,0,2.6-0.7,3.4-1.7l2.8,3.2c-1.4,1.1-2,3-1.4,4.7   l0.5,1.6l-4.6,5.2L54.2,57.7z M50.5,40c0.2-0.3,0.4-0.5,0.5-0.8c0.2-0.2,0.3-0.5,0.5-0.7c0.2-0.2,0.4-0.5,0.6-0.7   c0.2-0.2,0.4-0.5,0.6-0.7c0.2-0.2,0.4-0.5,0.7-0.7c0.2-0.2,0.4-0.4,0.6-0.6c0.3-0.3,0.6-0.5,0.9-0.8c0.2-0.1,0.3-0.3,0.5-0.4   c0.2-0.1,0.5-0.2,0.7-0.2c0.3,0,0.6,0.1,0.8,0.3c0.5,0.3,0.7,0.9,0.5,1.5v0l-1.7,5.4c-0.2,0.5-0.7,0.9-1.3,0.9h-3.1   c-0.7,0-1-0.5-1.1-0.7c-0.1-0.2-0.3-0.7,0-1.2C50.3,40.3,50.4,40.1,50.5,40z M62.1,50.6c-0.2-0.5,0-1.1,0.5-1.5l4.6-3.3   c0.5-0.3,1.1-0.3,1.5,0l4.6,3.3c0.5,0.3,0.7,0.9,0.5,1.5l-0.6,2c-0.2,0.3-0.3,0.5-0.3,0.8L72,56c-0.2,0.5-0.7,0.9-1.3,0.9h-5.7   c-0.6,0-1.1-0.4-1.3-0.9L62.1,50.6z M80.8,34.9c0.3,0.3,0.6,0.5,0.9,0.8c0.2,0.2,0.4,0.4,0.6,0.6c0.2,0.2,0.5,0.5,0.7,0.7   c0.2,0.2,0.4,0.5,0.6,0.7c0.2,0.2,0.4,0.5,0.6,0.7c0.2,0.2,0.3,0.5,0.5,0.7c0.2,0.3,0.4,0.6,0.6,0.8c0.1,0.2,0.2,0.3,0.3,0.5   c0.3,0.6,0.1,1.1,0,1.2c-0.1,0.2-0.5,0.7-1.1,0.7h-3.1c-0.6,0-1.1-0.4-1.3-0.9l-1.7-5.4c-0.2-0.5,0-1.1,0.5-1.5   c0.2-0.2,0.5-0.3,0.8-0.3c0.3,0,0.5,0.1,0.7,0.2C80.5,34.6,80.6,34.8,80.8,34.9z M76.8,32.4c-1.3,1.1-1.9,2.9-1.3,4.6l1.1,3.5   L72.7,45l-2.2-1.6c-1.5-1.1-3.6-1.1-5.1,0l-2.3,1.6l-3.9-4.5l1.1-3.5c0.5-1.7,0-3.5-1.3-4.6c2.8-1.3,5.8-2,8.9-2   C71,30.4,74,31.1,76.8,32.4z M58.5,69.2c0.6-0.5,1.1-1.2,1.4-2l0.4-1.3c0.6-1.8,0-3.7-1.6-4.8l-1.2-0.9l3.3-3.7l0.2,0.5   c0.6,1.8,2.2,3,4.1,3h5.7c1.9,0,3.5-1.2,4.1-3l0.1-0.5l3.2,3.6L77,61c-1.5,1.1-2.1,3-1.6,4.8l0.5,1.4c0.3,0.8,0.7,1.5,1.4,2   c-2.9,1.5-6.1,2.3-9.3,2.3C64.6,71.5,61.4,70.7,58.5,69.2z M23.8,63.5c0.3-0.3,0.4-0.7,0.4-1.1c0-0.4-0.2-0.8-0.4-1.1   c-0.6-0.5-1.6-0.5-2.1,0c-0.3,0.3-0.4,0.7-0.4,1.1c0,0.4,0.2,0.8,0.4,1.1c0.3,0.3,0.7,0.4,1.1,0.4C23.1,64,23.5,63.8,23.8,63.5z    M19.1,65.8c0.3-0.3,0.4-0.7,0.4-1.1c0-0.4-0.2-0.8-0.4-1.1c-0.6-0.6-1.6-0.6-2.1,0c-0.3,0.3-0.4,0.7-0.4,1.1   c0,0.4,0.2,0.8,0.4,1.1c0.3,0.3,0.7,0.4,1.1,0.4C18.5,66.3,18.9,66.1,19.1,65.8z M23.8,68.5c0.3-0.3,0.4-0.7,0.4-1.1   s-0.2-0.8-0.4-1.1c-0.6-0.6-1.6-0.6-2.1,0c-0.3,0.3-0.4,0.7-0.4,1.1c0,0.4,0.2,0.8,0.4,1.1c0.3,0.3,0.7,0.4,1.1,0.4   C23.1,68.9,23.5,68.8,23.8,68.5z"/>
</g>
<g id="_x31_8"/>
<g id="_x31_9"/>
<g id="_x32_0"/>
<g id="_x32_1"/>
<g id="_x32_2"/>
<g id="_x32_3"/>
<g id="_x32_4"/>
<g id="_x32_5"/>
</svg>