<?xml version="1.0" encoding="utf-8"?><!-- Uploaded to: SVG Repo, www.svgrepo.com, Generator: SVG Repo Mixer Tools -->
<svg version="1.1" id="Uploaded to svgrepo.com" xmlns="http://www.w3.org/2000/svg" xmlns:xlink="http://www.w3.org/1999/xlink" 
	 width="800px" height="800px" viewBox="0 0 32 32" xml:space="preserve">
<style type="text/css">
	.blueprint_een{fill:#111918;}
</style>
<path class="blueprint_een" d="M29,5H3v18h26V5z M28,22H4V6h24V22z M31.01,2H0.99C0.443,2,0,2.443,0,2.99v22.02
	C0,25.557,0.443,26,0.99,26H11v2H9.99C9.443,28,9,28.443,9,28.99v0.02C9,29.557,9.443,30,9.99,30h12.02
	c0.547,0,0.99-0.443,0.99-0.99v-0.02c0-0.547-0.443-0.99-0.99-0.99H21v-2h10.01c0.547,0,0.99-0.443,0.99-0.99V2.99
	C32,2.443,31.557,2,31.01,2z M19,28h-6v-3h6V28z M30,24H2V4h28V24z M21,12H11v-1h10V12z M21,14H11v-1h10V14z M21,16H11v-1h10V16z
	 M6,8H5V7h1V8z M8,8H7V7h1V8z"/>
</svg>